<svg xmlns="http://www.w3.org/2000/svg" xml:space="preserve" style="enable-background:new 0 0 128 128" viewBox="0 0 128 128">
  <path d="M7.1 28.3h-3V16.9H7c8.4 0 16.5 3.7 21.9 10.2l12.4 14.7-7.5 8.9-13.6-16.3c-3.2-3.9-8-6.1-13.1-6.1zm54.2 55 7.5-8.9L76 83c3.2 3.9 8 6.1 13.2 6.1h7.1V76.3c0-2.5 2.9-3.8 4.8-2.3l22.1 18.6c1.4 1.2 1.4 3.3 0 4.5L101 115.7c-2 1.6-4.8.3-4.8-2.3v-12.9h-7.1c-8.4 0-16.5-3.7-21.9-10.2 0 .1-5.9-7-5.9-7zm34.9-71.6v12.9h-7.1c-8.4 0-16.5 3.7-21.9 10.2l-47 56c-3.2 3.9-8 6.1-13.2 6.1H4.1v11.4H7c8.4 0 16.5-3.7 21.9-10.2l47-56c3.2-3.9 8-6.1 13.2-6.1h7.1v12.9c0 2.5 2.9 3.8 4.8 2.3l22.1-18.6c1.4-1.2 1.4-3.3 0-4.5L101 9.4c-1.9-1.6-4.8-.2-4.8 2.3z"/>
</svg>
