<svg xmlns="http://www.w3.org/2000/svg" viewBox="0 0 128 128"><path d="M95.9 15.987h-5.7v11.3h5.7c9.3 0 16.9 7.6 16.9 16.9v37.4c0 9.3-7.6 16.9-16.9 16.9H85.2v-11.5c0-4.4-5.4-6.7-8.5-3.5l-17.1 17.1c-2 2-2 5.2 0 7.1l17.1 16.9c3.1 3.1 8.5.8 8.5-3.6v-11.2h10.7c15.5 0 28.1-12.6 28.1-28.1v-37.5c0-15.6-12.6-28.2-28.1-28.2m-63.8 0c-15.5 0-28.1 12.6-28.1 28.2v37.5c0 15.5 12.6 28.1 28.1 28.1h9.4v-11.2h-9.4c-9.3 0-16.9-7.6-16.9-16.9v-37.5c0-9.3 7.6-16.9 16.9-16.9h5.4v-11.3z"/><path d="M73.1 70.987v-54c0-.5-.4-1-1-1h-8.9c-.5 0-.9.3-1 .8-1.3 5.2-5.9 9.2-13.2 9.7-.5 0-1 .5-1 1v6.4c0 .5.4 1 1 1h10.6c.5 0 1 .4 1 1v35.1c0 .5.4 1 1 1H72c.7 0 1.1-.4 1.1-1"/></svg>