<svg xmlns="http://www.w3.org/2000/svg" xml:space="preserve" style="enable-background:new 0 0 128 128" viewBox="0 0 128 128">
  <path d="M80.7 50.6c3.9 3.2 6.4 8 6.4 13.4s-2.5 10.2-6.4 13.4c-1.9 1.5-4.6 1.2-6.1-.6-1.5-1.9-1.2-4.6.6-6.1 1.9-1.6 3.2-4 3.2-6.7s-1.2-5.1-3.2-6.7c-1.9-1.5-2.1-4.2-.6-6.1 1.5-1.9 4.2-2.1 6.1-.6zM60.6 24.2c2.1.9 3.4 3 3.4 5.3v69.1c0 2.3-1.3 4.3-3.4 5.3s-4.5.6-6.2-1L30.1 81.3H17.9c-6.4 0-11.5-5.2-11.5-11.5V58.2c0-6.4 5.2-11.5 11.5-11.5h12.2l24.3-21.6c1.7-1.5 4.1-1.9 6.2-.9z"/>
</svg>
