<svg xmlns="http://www.w3.org/2000/svg" xml:space="preserve" style="enable-background:new 0 0 128 128" viewBox="0 0 128 128">
  <path d="M102.4 23.7c11.7 9.5 19.2 24 19.2 40.2s-7.5 30.7-19.2 40.2c-1.9 1.5-4.6 1.2-6.1-.6s-1.2-4.5.7-6c9.8-7.9 16-20 16-33.5s-6.2-25.6-16-33.5c-1.9-1.5-2.1-4.2-.6-6.1s4.2-2.2 6-.7zM91.6 37.2c7.8 6.3 12.8 16 12.8 26.8s-5 20.5-12.8 26.8c-1.9 1.5-4.6 1.2-6.1-.6-1.5-1.9-1.2-4.6.6-6.1 5.8-4.8 9.6-12 9.6-20.1S92 48.6 86.1 43.9c-1.9-1.5-2.1-4.2-.6-6.1s4.2-2.2 6.1-.6zM80.7 50.6c3.9 3.2 6.4 8 6.4 13.4s-2.5 10.2-6.4 13.4c-1.9 1.5-4.6 1.2-6.1-.6-1.5-1.9-1.2-4.6.6-6.1 1.9-1.6 3.2-4 3.2-6.7s-1.2-5.1-3.2-6.7c-1.9-1.5-2.1-4.2-.6-6.1 1.5-1.9 4.2-2.1 6.1-.6zM60.6 24.2c2.1.9 3.4 3 3.4 5.3v69.1c0 2.3-1.3 4.3-3.4 5.3s-4.5.6-6.2-1L30.1 81.3H17.9c-6.4 0-11.5-5.2-11.5-11.5V58.2c0-6.4 5.2-11.5 11.5-11.5h12.2l24.3-21.6c1.7-1.5 4.1-1.9 6.2-.9z"/>
</svg>
