<svg xmlns="http://www.w3.org/2000/svg" xml:space="preserve" style="enable-background:new 0 0 128 128" viewBox="0 0 128 128">
  <path d="M60.6 24.2c2.1.9 3.4 3 3.4 5.3v69.1c0 2.3-1.3 4.3-3.4 5.3s-4.5.6-6.2-1L30.1 81.3H17.9c-6.4 0-11.5-5.2-11.5-11.5V58.2c0-6.4 5.2-11.5 11.5-11.5h12.2l24.3-21.6c1.7-1.5 4.1-1.9 6.2-.9zM101.3 64l12.8-12.8c2-2 2-5.1 0-7.1s-5.1-2-7.1 0L94.2 56.9 81.5 44.2c-2-2-5.1-2-7.1 0s-2 5.1 0 7.1L87.2 64 74.4 76.8c-2 2-2 5.1 0 7.1 1 1 2.3 1.5 3.5 1.5 1.3 0 2.6-.5 3.5-1.5l12.8-12.8L107 83.8c1 1 2.3 1.5 3.5 1.5s2.6-.5 3.5-1.5c2-2 2-5.1 0-7.1L101.3 64z"/>
</svg>
