<svg xmlns="http://www.w3.org/2000/svg" width="24" height="24" viewBox="0 0 24 24"><path fill-rule="evenodd" d="M11.16 5.043c-3.343.254-6.198 2.157-8.536 5.688-.542.819-.604.949-.604 1.269s.062.45.604 1.269c1.961 2.962 4.254 4.757 6.935 5.43a9.93 9.93 0 0 0 8.161-1.513c1.48-1.049 2.904-2.641 4.044-4.522.212-.349.216-.363.216-.664s-.004-.315-.216-.664c-1.42-2.344-3.21-4.155-5.124-5.188-1.621-.874-3.509-1.254-5.48-1.105m2.049 2.055c.802.123 1.373.302 2.176.683 1.533.727 2.957 2.037 4.188 3.854.125.184.227.349.227.365 0 .041-.399.627-.694 1.02-.819 1.09-1.86 2.087-2.834 2.714a7.87 7.87 0 0 1-5.772 1.12c-2.234-.431-4.191-1.837-5.895-4.234-.407-.572-.42-.597-.361-.71.076-.145.65-.94.944-1.31.388-.486 1.247-1.357 1.697-1.719a8.6 8.6 0 0 1 1.73-1.1c.838-.398 1.531-.607 2.312-.698l.513-.06c.267-.031 1.382.016 1.769.075m-1.71 1.942a3.05 3.05 0 0 0-2.385 2.12c-.135.434-.135 1.246 0 1.68a3.09 3.09 0 0 0 2.046 2.046c.434.135 1.246.135 1.68 0a3.09 3.09 0 0 0 2.046-2.046c.135-.434.135-1.246 0-1.68-.305-.981-1.076-1.753-2.025-2.031-.361-.106-1.029-.149-1.362-.089m.811 2.021c.378.112.69.537.69.94 0 .33-.216.695-.516.871-.156.091-.23.108-.484.108s-.328-.017-.484-.108c-.581-.342-.683-1.098-.212-1.569q.417-.418 1.006-.242"/></svg>