<svg xmlns="http://www.w3.org/2000/svg" viewBox="0 0 509 208"><path d="M180.259 62.345c0-2.9-.3-7-2.9-9.1-2.6-2-6.7-2.3-9.6-2.6-15.2-1.5-31-1.5-46.4-1.5-14.3 0-29.8 0-43.8 2.6-3.2.6-6.1 1.5-8.8 3.5-6.7 5.3-6.1 19.9-6.1 27.4v10.8c3.5-3.5 7-6.4 11.4-8.8 16.4-9.3 49.1-8.5 67.4-8.5 19.9 0 44.1.3 63.1 6.4 7 2.3 12.8 5.5 18.1 10.8 11.7 11.4 12 33.3 12 48.5 0 27.7-4.7 52.6-35.6 58.7-12 2.3-24.2 3.2-36.2 3.5-17.5.3-34.7.6-52.3.6-24.5 0-70.4 1.5-89.1-15.5-13.4-12-14.3-35.3-14.9-52-.3-12.8-.6-26-.6-38.8 0-23.4-2.6-61.3 16.6-78 18.4-16.1 81.2-15.2 104.2-15.2 12.8 0 25.7 0 38.5.6 17.8.6 47.9 1.5 61.3 15.2 9.3 9.6 9.1 28.6 9.1 41.2h-55.4zm-16.9 59.5c-15.8-2.3-32.7-1.8-48.8-1.8-11.7 0-23.7-.6-35.3 1.2-11.4 1.8-15.8 8.8-15.8 19.9 0 5 1.2 11.4 4.7 15.2 5.8 6.1 38.8 4.7 46.4 4.7 10.2 0 20.1-.3 30.4-.6 7.3-.3 22.2.6 28-5 3.5-3.5 4.1-9.9 4.1-14.6 0-10.8-2.3-17.3-13.7-19m303 44.4v36.2h-56.4v-36.2h-155.3v-74.5l115.7-84h96.1v114.8h37.7v43.8h-37.8zm-56.3-113.2h-12l-90.5 61.9v7.6h102.5z"/></svg>