<svg version="1.1" xmlns="http://www.w3.org/2000/svg" xmlns:xlink="http://www.w3.org/1999/xlink" x="0px" y="0px" viewBox="0 0 133.2 24" style="enable-background:new 0 0 133.2 24;" xml:space="preserve">
<path id="MOS_6581" d="M63.5,18.6c0,1.8-2.1,3.3-4.6,3.3L46.7,22l0.1-5.7h16.7L63.5,18.6z M63.5,14.1H46.8L46.8,9h16.7
	V14.1z M63.5,2.1v4.8H46.8V5.7c0-2,2.3-3.6,5.3-3.6H63.5z M34.1,1.8c5.4,0,9.7,4.6,9.7,10.2s-4.4,10.2-9.7,10.2s-9.7-4.6-9.7-10.2
	S28.8,1.8,34.1,1.8z M3,2.7h5.3v19.1H3V2.7z M14.8,22V6.9l0,0c0-2.4-2-4.1-4.6-4.1H9.9V22L14.8,22z M21.5,21.9v-15l0,0
	c0-2.4-2-4.1-4.6-4.1h-0.3l0.1,19.1H21.5z M85.9,6.7l-4,0.4c-0.1-0.7-0.4-1.2-0.8-1.6C80.8,5.2,80.2,5,79.6,5c-0.9,0-1.6,0.3-2.2,1
	c-0.6,0.7-1,2.9-1.1,5c1-1,2.3-1.6,3.8-1.6c1.7,0,3.2,0.6,4.4,1.7c1.2,1.1,1.8,2.6,1.8,4.3c0,1.9-0.6,3.4-1.9,4.5
	c-1.3,1.1-2.9,1.7-5,1.7c-2.2,0-4-0.7-5.4-2.2c-1.4-1.4-2.1-3.8-2.1-7.1c0-3.4,0.7-6.6,2.2-8.1s3.3-2.2,5.7-2.2c1.6,0,3,0.4,4.1,1.2
	C85,4.1,85.6,5.2,85.9,6.7z M76.6,15.2c0,1.1,0.3,2,0.9,2.7s1.3,0.9,2.1,0.9c0.8,0,1.4-0.3,1.9-0.8c0.5-0.5,0.8-1.3,0.8-2.5
	c0-1.2-0.3-2.1-0.8-2.6c-0.5-0.6-1.2-0.8-2.1-0.8c-0.8,0-1.5,0.3-2,0.8C76.9,13.4,76.6,14.2,76.6,15.2z M87.2,16.7l4.1-0.4
	c0.1,0.8,0.5,1.4,1,1.9c0.6,0.5,1.2,0.7,2,0.7c0.9,0,1.6-0.3,2.2-0.9c0.6-0.6,0.9-1.5,0.9-2.7c0-1.1-0.3-2-0.9-2.5
	c-0.6-0.6-1.4-0.8-2.3-0.8c-1.2,0-2.2,0.4-3.2,1.3l-3.3-0.4l2.1-10.4h10.9v3.3H93l-0.6,3.9c0.9-0.4,1.9-0.6,2.8-0.6
	c1.8,0,3.4,0.6,4.6,1.7c1.3,1.1,1.9,2.6,1.9,4.4c0,1.5-0.5,2.9-1.5,4.1c-1.4,1.6-3.3,2.4-5.8,2.4c-2,0-3.6-0.5-4.9-1.4
	S87.5,18.2,87.2,16.7z M105.9,11.5c-1.1-0.4-1.8-0.9-2.3-1.6c-0.5-0.7-0.7-2.2-0.7-3c0-1.4,0.6-2.5,1.7-3.4c1.1-0.9,2.7-1.3,4.8-1.3
	c2,0,3.6,0.4,4.8,1.3c1.1,0.9,1.7,2,1.7,3.4c0,0.9-0.3,2.4-0.8,3.1c-0.5,0.7-1.2,1.2-2.2,1.5c1.2,0.4,2.1,1,2.7,1.8
	c0.6,0.8,0.9,1.7,0.9,2.7c0,1.7-0.6,3.1-1.9,4.1c-1.3,1.1-2.9,1.6-5.1,1.6c-2,0-3.6-0.4-4.9-1.3c-1.5-1-2.3-2.5-2.3-4.3
	c0-1,0.3-1.9,0.9-2.7C103.8,12.6,104.7,11.9,105.9,11.5z M106.4,15.8c0,1,0.3,1.7,0.9,2.3c0.6,0.5,1.3,0.8,2.2,0.8
	c0.9,0,1.6-0.3,2.1-0.8c0.6-0.5,0.8-1.3,0.8-2.3c0-0.9-0.3-1.6-0.9-2.1c-0.6-0.5-1.3-0.8-2.2-0.8c-1,0-1.8,0.3-2.3,0.9
	C106.6,14.5,106.4,15.1,106.4,15.8z M106.8,7.1c0,0.7,0.2,2.1,0.7,2.5c0.5,0.4,1.1,0.6,1.9,0.6c0.8,0,1.4-0.2,1.9-0.6
	c0.5-0.4,0.7-1.8,0.7-2.5c0-0.7-0.2-1.2-0.7-1.6c-0.5-0.4-1.1-0.6-1.8-0.6c-0.8,0-1.4,0.2-1.9,0.6C107,5.9,106.8,6.5,106.8,7.1z
	 M125,21.7h-3.9V6.3l-4.3,1.1V4.5l5-2.3h3.2V21.7z"/>
</svg>
