<svg version="1.1" xmlns="http://www.w3.org/2000/svg" xmlns:xlink="http://www.w3.org/1999/xlink" x="0px" y="0px" viewBox="0 0 133.2 24" style="enable-background:new 0 0 133.2 24;" xml:space="preserve">
<path id="MOS_8580" d="M63.4,18.6c0,1.8-2.1,3.3-4.6,3.3L46.5,22l0.1-5.7h16.7L63.4,18.6z M63.4,14.1H46.6L46.7,9h16.7
	V14.1z M63.4,2.1v4.8H46.6V5.7c0-2,2.3-3.6,5.3-3.6H63.4z M34,1.8c5.4,0,9.7,4.6,9.7,10.2S39.4,22.2,34,22.2s-9.7-4.6-9.7-10.2
	S28.6,1.8,34,1.8z M2.8,2.7h5.3v19.1H2.8V2.7z M14.7,22V6.9l0,0c0-2.4-2-4.1-4.6-4.1H9.8V22L14.7,22z M21.4,21.9v-15l0,0
	c0-2.4-2-4.1-4.6-4.1h-0.3l0.1,19.1H21.4z M75.4,11.7c-1.1-0.4-1.8-0.9-2.3-1.6c-0.5-0.7-0.7-2.2-0.7-3c0-1.4,0.6-2.5,1.7-3.4
	c1.1-0.9,2.7-1.3,4.8-1.3c2,0,3.6,0.4,4.7,1.3c1.1,0.9,1.7,2,1.7,3.4c0,0.9-0.3,2.4-0.8,3.1c-0.5,0.7-1.2,1.2-2.2,1.5
	c1.2,0.4,2.1,1,2.7,1.8s0.9,1.7,0.9,2.7c0,1.7-0.6,3.1-1.9,4.1c-1.3,1.1-2.9,1.6-5,1.6c-2,0-3.6-0.4-4.9-1.3c-1.5-1-2.3-2.5-2.3-4.3
	c0-1,0.3-1.9,0.9-2.7C73.3,12.8,74.2,12.1,75.4,11.7z M75.9,16c0,1,0.3,1.7,0.9,2.3c0.6,0.5,1.3,0.8,2.2,0.8c0.8,0,1.6-0.3,2.1-0.8
	c0.6-0.5,0.8-1.3,0.8-2.3c0-0.9-0.3-1.6-0.8-2.1c-0.6-0.5-1.3-0.8-2.1-0.8c-1,0-1.8,0.3-2.2,0.9C76.1,14.7,75.9,15.3,75.9,16z
	 M76.3,7.3c0,0.7,0.2,2.1,0.7,2.5c0.5,0.4,1.1,0.6,1.9,0.6c0.8,0,1.4-0.2,1.9-0.6c0.5-0.4,0.7-1.8,0.7-2.5c0-0.7-0.2-1.2-0.7-1.6
	c-0.5-0.4-1.1-0.6-1.8-0.6c-0.8,0-1.4,0.2-1.9,0.6S76.3,6.7,76.3,7.3z M86.7,16.9l4.1-0.4c0.1,0.8,0.5,1.4,1,1.9
	c0.6,0.5,1.2,0.7,2,0.7c0.9,0,1.6-0.3,2.2-0.9s0.9-1.5,0.9-2.7c0-1.1-0.3-2-0.9-2.5c-0.6-0.6-1.4-0.8-2.3-0.8
	c-1.2,0-2.2,0.4-3.2,1.3L87.2,13l2.1-10.4h10.9V6h-7.8l-0.6,3.9c0.9-0.4,1.9-0.6,2.8-0.6c1.8,0,3.4,0.6,4.6,1.7
	c1.3,1.1,1.9,2.6,1.9,4.4c0,1.5-0.5,2.9-1.5,4c-1.4,1.6-3.3,2.4-5.8,2.4c-2,0-3.6-0.5-4.8-1.4S86.9,18.4,86.7,16.9z M105.3,11.7
	c-1.1-0.4-1.8-0.9-2.3-1.6c-0.5-0.7-0.7-2.2-0.7-3c0-1.4,0.6-2.5,1.7-3.4c1.1-0.9,2.7-1.3,4.8-1.3c2,0,3.6,0.4,4.7,1.3
	c1.1,0.9,1.7,2,1.7,3.4c0,0.9-0.3,2.4-0.8,3.1c-0.5,0.7-1.2,1.2-2.2,1.5c1.2,0.4,2.1,1,2.7,1.8s0.9,1.7,0.9,2.7
	c0,1.7-0.6,3.1-1.9,4.1c-1.3,1.1-2.9,1.6-5,1.6c-2,0-3.6-0.4-4.9-1.3c-1.5-1-2.3-2.5-2.3-4.3c0-1,0.3-1.9,0.9-2.7
	C103.1,12.8,104,12.1,105.3,11.7z M105.8,16c0,1,0.3,1.7,0.9,2.3c0.6,0.5,1.3,0.8,2.2,0.8c0.8,0,1.6-0.3,2.1-0.8
	c0.6-0.5,0.8-1.3,0.8-2.3c0-0.9-0.3-1.6-0.8-2.1c-0.6-0.5-1.3-0.8-2.1-0.8c-1,0-1.8,0.3-2.2,0.9C106,14.7,105.8,15.3,105.8,16z
	 M106.1,7.3c0,0.7,0.2,2.1,0.7,2.5c0.5,0.4,1.1,0.6,1.9,0.6c0.8,0,1.4-0.2,1.9-0.6c0.5-0.4,0.7-1.8,0.7-2.5c0-0.7-0.2-1.2-0.7-1.6
	c-0.5-0.4-1.1-0.6-1.8-0.6c-0.8,0-1.4,0.2-1.9,0.6C106.4,6.1,106.1,6.7,106.1,7.3z M123.4,2.4c2.1,0,3.7,0.7,4.9,2
	c1.4,1.6,2.1,4.2,2.1,7.8c0,3.6-0.7,6.2-2.1,7.8c-1.2,1.3-2.8,2-4.9,2c-2.1,0-3.8-0.7-5-2.2c-1.3-1.4-1.9-4-1.9-7.7
	c0-3.6,0.7-6.2,2.1-7.8C119.7,3.1,121.4,2.4,123.4,2.4z M123.4,5.5c-0.5,0-0.9,0.1-1.3,0.4c-0.4,0.3-0.7,0.8-0.9,1.5
	c-0.3,1-0.4,2.5-0.4,4.8s0.1,3.8,0.4,4.6c0.3,0.8,0.6,1.4,1,1.7c0.4,0.3,0.8,0.4,1.3,0.4c0.5,0,0.9-0.1,1.3-0.4
	c0.4-0.3,0.7-0.8,0.9-1.5c0.3-0.9,0.4-2.5,0.4-4.8s-0.1-3.8-0.4-4.6c-0.3-0.8-0.6-1.4-1-1.7C124.4,5.6,123.9,5.5,123.4,5.5z"/>
</svg>
