<svg xmlns="http://www.w3.org/2000/svg" xml:space="preserve" style="fill-rule:evenodd;clip-rule:evenodd;stroke-linejoin:round;stroke-miterlimit:2" viewBox="0 0 155 20"><path d="M18.049 6.34v12.69h-5.795l.316-2.626h-.111q-.576 1.426-1.904 2.093-1.328.666-3.576.666-3.046 0-4.495-1.029t-1.449-3.206V6.34H6.83v7.238q.018.927.056 1.193.037.265.204.49.501.663 2.099.663 2.043 0 2.805-1.034.26-.411.26-1.935V6.34zM20.391.897h5.795v18.132h-5.795zM41.734 6.34v2.987H35.01v5.137q0 .996.251 1.341.25.345.994.345 1.003 0 1.319-.405t.316-1.666v-.265h4.644q0 .199-.009.299a3 3 0 0 1-.028.219q-.038 1.805-.204 2.436-.166.63-.78 1.175-.465.438-1.226.71-.762.272-1.941.392t-2.851.119q-2.415 0-3.715-.365t-1.987-1.241a2.2 2.2 0 0 1-.464-.916q-.111-.49-.111-1.367V9.328h-2.155V6.341h2.155V3.673h5.795v2.668h6.724ZM43.37 6.34h5.795l-.279 2.031h.13q.762-1.22 1.746-1.699.984-.478 2.693-.478 1.374 0 2.229.232t1.375.763.762 1.427.241 2.263q0 .57.037.996h-5.294q.037-.132.037-.319 0-.876-.121-1.367-.12-.491-.455-.664-.334-.173-1.059-.173-.965 0-1.505.498t-.539 1.4v7.779h-5.795V6.339ZM64.677 10.109h-5.814v-.345q0-1.062.381-1.746t1.244-1.075 2.359-.571q1.496-.179 3.761-.179 3.454 0 5.359.411t2.684 1.394q.78.982.78 2.788v8.243h-5.777l.186-2.071h-.149q-.39.863-1.012 1.341t-1.681.67-2.86.192q-1.635 0-2.777-.226-1.143-.225-1.848-.71a2.9 2.9 0 0 1-1.04-1.241q-.334-.756-.334-1.845 0-1.035.353-1.759.353-.723 1.114-1.188t1.932-.69q1.17-.226 2.916-.226 1.672 0 2.656.127.984.126 1.514.46.53.333.919 1.001h.111V10.39q0-.905-.604-1.283-.603-.38-2.127-.379-1.263 0-1.718.279t-.529 1.102Zm1.969 3.69q-1.523 0-2.108.291-.585.29-.585 1.03 0 .806.613 1.077.614.27 2.433.271 1.542 0 2.08-.291.539-.29.539-1.162 0-.7-.613-.958t-2.359-.258M93.784.897h7.04l-7.43 18.132H82.862L75.674.897h6.891l2.805 6.982a261 261 0 0 1 2.675 6.995h.186l.223-.571.186-.597.241-.571q.501-1.367.632-1.779l.502-1.142.464-1.168.446-1.168 2.86-6.982ZM106.955.897v3.066h-5.795V.897zm0 5.442v12.69h-5.795V6.339zM119.922 14.795h5.665v.239q0 1.766-1.096 2.748-.873.757-2.405 1.069-1.533.312-4.486.312-1.728 0-2.944-.093a14 14 0 0 1-2.183-.325q-.966-.232-1.588-.551a5 5 0 0 1-1.161-.823 3.8 3.8 0 0 1-.567-.79 4.2 4.2 0 0 1-.39-1.035 9 9 0 0 1-.204-1.367 23 23 0 0 1-.065-1.865q0-1.845.409-3.007a3.73 3.73 0 0 1 1.365-1.845q.957-.684 2.526-.976 1.57-.292 4.151-.292 3.418 0 5.266.524t2.61 1.799.762 3.69v1.195h-11.368a3 3 0 0 0-.037.491q0 .956.269 1.454.27.498.929.717.66.219 1.83.219 1.022 0 1.625-.126t.845-.458q.241-.332.241-.903Zm-5.665-3.677h5.777a2 2 0 0 1-.037-.409q0-.988-.539-1.272-.538-.284-2.433-.284-1.17 0-1.718.125-.547.125-.762.455-.213.33-.251 1.029 0 .093-.009.171a3 3 0 0 1-.028.185M153.543 6.34l-3.083 12.69h-8.377l-1.244-4.513q-.056-.186-.362-1.254t-.362-1.274a364 364 0 0 1-.539-2.091h-.149q-.26 1.035-.325 1.281-.065.245-.176.644-.279 1.048-.724 2.695l-1.244 4.513h-8.451l-3.232-12.69h5.591l1.059 4.911q.576 2.8 1.003 5.004h.111q.873-3.145 1.486-5.004l1.523-4.911h6.761l1.56 4.911q.669 2.164.984 3.318l.13.411.111.438.111.398.111.438h.149l.074-.438q.111-.624.167-.869.056-.246.149-.79l.074-.398q.018-.132.084-.405.065-.272.204-.889.14-.617.269-1.215l1.077-4.911z" style="fill-rule:nonzero"/></svg>