<?xml version="1.0" encoding="UTF-8"?><svg xmlns="http://www.w3.org/2000/svg" data-name="Layer 1" viewBox="0 0 135.8 19.6"><path d="M13.8 18.5v-1.9h-.2c-.7 1.6-2.2 2.2-5.5 2.2s-4.6-.5-5.8-1.6C1.1 16.1.9 15.1.9 11.7V5.9h4.8v5.8c0 1.8.1 2.4.7 2.9s1.3.7 3.1.7 2.6-.2 3.2-.7c.7-.6.8-1.3.8-3.6V6h4.8v12.6h-4.5ZM25.3.8v17.7h-4.8V.8h4.8Zm8.5 2.3V6h7.6v3.4h-7.6v3.7c0 1.3 0 1.5.2 1.9.2.5.7.6 1.7.6s1.5-.2 1.7-.6c.2-.3.2-.4.2-1.7H42c0 2.4-.2 3.2-1 4.1-1 1.2-2.5 1.6-5.8 1.6s-4.3-.3-5.3-1.2c-.7-.6-.9-1.3-1-2.7V9.4h-2.5V6h2.5V3.1h4.8ZM48 6v1.9h.2c.9-1.6 2.3-2.2 5-2.2 3.9 0 5.2 1.3 5.2 5.1v.8h-4.5c0-1.9-.5-2.4-2.5-2.4s-2 .3-2.5.9c-.5.6-.6 1.3-.6 3.2v5.2h-4.8V6h4.6Zm11.8 3.9c.1-1.8.7-2.7 2.1-3.4 1.1-.6 3.3-.8 7.3-.8s5.2.2 6.3 1.3c.8.8 1.1 1.8 1.1 4.1v7.6H72V17h-.2c-.4.8-.8 1.2-1.7 1.6-.8.3-2 .5-5.2.5s-3.8-.3-4.7-1.1c-.6-.6-.9-1.5-.9-2.9 0-2.3.9-3.5 2.7-4 1.1-.3 2.4-.4 6-.4s2.9.2 3.6 1h.2V11c0-1.9-.4-2.2-3.3-2.2s-3.8.1-4 1.3h-4.8Zm5 3.6c-.5.2-.7.6-.7 1 0 1 .7 1.3 3.3 1.3s4.3-.3 4.3-1.4-.3-.9-.8-1.1c-.3-.1-1-.2-3.1-.2-1.6 0-2.6.1-3 .3Zm18.8-.8c0 1 .1 1.4.5 1.7.6.3.7.3 5 .4q5.9 0 5.9-1.6c0-1.1-.4-1.3-2.2-1.4-.6 0-2.4 0-4.4-.2-2-.1-3.8-.2-4.4-.2-2.6 0-3.9-.5-4.7-1.4-.7-.8-1-1.9-1-3.7 0-2.6.6-4.2 1.9-4.9 1.4-.7 3-.9 9.6-.9s7 .2 8.3 1c1.2.7 1.7 1.9 1.7 4v.8h-5.3c0-.9-.1-1.1-.4-1.4-.4-.3-1.1-.4-5.2-.4s-5 .1-5 1.4.2 1 .8 1.2c.5.1 1.9.2 5.9.3 5.9.2 7.1.3 8.2 1 1.3.8 1.8 2 1.8 4.5s-.7 4.5-2.5 5.2c-1.1.5-3.3.6-9 .6s-7.7-.2-9-1c-1.4-.7-1.8-1.8-1.8-4.3v-.8h5.4ZM108.2.8v17.7h-5.8V.8h5.8Zm2.6 0h13.1c4.6 0 5.3 0 6.8.3 1.8.3 3 1.4 3.5 3 .4 1.3.5 2.4.5 5.3 0 4.6-.4 6.4-1.7 7.6-1.4 1.2-3 1.5-9.1 1.5h-13.1V.8ZM123.9 14c5 0 5.4-.3 5.4-4.3s-.2-3.2-.7-3.8c-.6-.6-1.3-.7-4.7-.7h-7.7V14h7.7Z"/></svg>