<svg xmlns="http://www.w3.org/2000/svg" viewBox="0 0 1024 1024"><path d="M968.7 481.4H863.5c-6.5-73.8-33.6-139.2-81.3-196.2l74.6-74.6c2-2.4 3.5-5.2 4.3-8.3.8-3.1.8-6.2 0-9.5-.8-3.2-2.3-5.9-4.3-7.9l-17.7-17.7c-3.2-3.2-7.5-4.9-12.5-4.9s-9.5 1.7-13.1 4.9l-74.6 74.6c-57-47.7-122.4-74.8-196.2-81.3V55.3c0-4.9-1.8-9.2-5.5-12.8-3.7-3.7-7.9-5.5-12.8-5.5h-24.5c-4.9 0-9.2 1.8-12.8 5.5-3.7 3.7-5.5 7.9-5.5 12.8v105.1c-73.8 6.5-139.2 33.6-196.2 81.3l-74.6-74.6c-3.7-3.2-8.1-4.9-13.1-4.9-5.1 0-9.3 1.7-12.5 4.9l-17.7 17.7c-3.2 3.2-4.9 7.5-4.9 12.5 0 5.1 1.7 9.5 4.9 13.1l74.6 74.6c-47.7 57-74.8 122.4-81.3 196.2H55.3c-4.9 0-9.2 1.8-12.8 5.5-3.7 3.7-5.5 7.9-5.5 12.8V524c0 4.9 1.8 9.2 5.5 12.8s7.9 5.5 12.8 5.5h105.1c6.5 73.8 33.6 139.2 81.3 196.2l-74.6 74.6c-3.2 3.7-4.9 8.1-4.9 13.1s1.7 9.3 4.9 12.5l17.7 17.7c1.2 1.2 2.8 2.3 4.6 3.1 1.8.8 3.7 1.4 5.5 1.8 1.8.4 3.7.4 5.5 0 1.8-.4 3.7-1 5.5-1.8 1.8-.8 3.4-1.8 4.6-3.1l74.6-74.6c57 47.7 122.4 74.8 196.2 81.3v105.1c0 4.9 1.8 9.2 5.5 12.8 3.7 3.7 7.9 5.5 12.8 5.5h24.5c4.9 0 9.2-1.8 12.8-5.5 3.7-3.7 5.5-7.9 5.5-12.8V863.5c73.8-6.5 139.2-33.6 196.2-81.3l74.6 74.6c1.7 1.7 3.5 2.9 5.8 3.7 2.3.8 4.6 1.2 7 1.2s4.8-.4 7-1.2c2.3-.8 4.2-2 5.8-3.7l17.7-17.7c1.7-1.7 2.9-3.5 3.7-5.8.8-2.3 1.2-4.6 1.2-7s-.4-4.8-1.2-7c-.8-2.3-2-4.2-3.7-5.8l-74.6-74.6c47.7-57 74.8-122.4 81.3-196.2h105.1c4.9 0 9.2-1.8 12.8-5.5 3.7-3.7 5.5-7.9 5.5-12.8v-24.5c0-4.9-1.8-9.2-5.5-12.8-3.3-3.8-7.5-5.7-12.4-5.7zM512 773c-35.5 0-69.3-6.9-101.5-20.8s-59.9-32.4-83.1-55.6c-23.2-23.2-41.8-50.9-55.6-83.1-13.9-32.2-20.8-66-20.8-101.5 0-47.3 11.6-91 34.8-131.1 23.2-40.2 54.9-71.8 95.1-95.1S464.7 251 512 251s91 11.6 131.1 34.8 71.8 55 95.1 95.1C761.4 421 773 464.7 773 512s-11.6 91-34.8 131.1c-23.2 40.2-54.9 71.8-95.1 95.1C603 761.4 559.3 773 512 773z"/></svg>