<svg xmlns="http://www.w3.org/2000/svg" viewBox="0 0 1024 1024"><path d="M512 129.5c51.7 0 101.2 10 148.5 30.2 47.3 20.1 88.1 47.3 122.3 81.5 34.3 34.3 61.5 75.1 81.5 122.3 20.1 47.3 30.2 96.8 30.2 148.5s-10 101.2-30.2 148.5-47.3 88.1-81.5 122.3c-34.3 34.3-75.1 61.5-122.3 81.5-47.3 20.1-96.8 30.2-148.5 30.2s-101.2-10-148.5-30.2-88.1-47.3-122.3-81.5c-34.3-34.3-61.5-75.1-81.5-122.3-20.1-47.3-30.2-96.8-30.2-148.5s10-101.2 30.2-148.5 47.3-88.1 81.5-122.3 75.1-61.5 122.3-81.5c47.3-20.1 96.8-30.2 148.5-30.2zm0 665.5V228.9c-51.3 0-98.7 12.6-142.2 37.8s-77.9 59.6-103.1 103.1S229 460.7 229 511.9s12.6 98.7 37.8 142.2c25.2 43.5 59.6 77.9 103.1 103.1C413.4 782.6 460.7 795 512 795z"/></svg>