<?xml version="1.0" encoding="utf-8"?>
<svg xmlns="http://www.w3.org/2000/svg" viewBox="0 0 1024 1024">
  <path d="M 375 586 L 375 438 L 300 512 L 375 586 Z M 512 718 L 586.002 643 L 439 643 L 512 718 Z M 439 385 L 586 385 L 512 311 L 439 385 Z M 641 587 L 715 513 L 641 438.002 L 641 587 Z M 172.193 831.998 C 156.034 831.973 141.682 825.877 129.874 813.877 C 117.704 801.967 112.003 788.108 112 772 L 112.002 252.193 C 112.027 236.034 118.123 221.681 130.123 209.874 C 142.015 197.761 155.892 192.003 172 192 L 851.807 192.002 C 867.966 192.027 882.317 198.122 894.126 210.122 C 906.296 222.032 911.997 235.892 912 252 L 911.998 771.807 C 911.973 787.966 905.877 802.319 893.875 814.129 C 882.032 826.14 868.121 831.991 852 832 L 172.193 831.998 Z M 852 772 L 852 252 L 172 252 L 172 772 L 852 772 Z" style="fill: rgb(0, 0, 0);"/>
</svg>