<svg xmlns="http://www.w3.org/2000/svg" xml:space="preserve" style="enable-background:new 0 0 1024 1024" viewBox="0 0 1024 1024"><path d="M894.5 512c0 34.5-4.5 68.3-13.6 101.4-9.1 33.2-21.8 63.8-38.4 91.8-16.6 28-36.5 53.8-60 77.3s-49.1 43.4-77.3 60c-28.1 16.6-58.7 29.4-91.8 38.4-33.1 9-67 13.6-101.4 13.6-51.7 0-101.2-10-148.5-30.2s-88.1-47.3-122.3-81.5c-34.3-34.3-61.5-75.1-81.5-122.3-20.1-47.3-30.2-96.8-30.2-148.5s10-101.2 30.2-148.5 47.3-88.1 81.5-122.3 75.1-61.5 122.3-81.5c47.3-20.1 96.8-30.2 148.5-30.2s101.2 10 148.5 30.2c47.3 20.1 88.1 47.3 122.3 81.5 34.3 34.3 61.5 75.1 81.5 122.3 20.2 47.3 30.2 96.8 30.2 148.5zM512 444.4c20.7 0 38.3-7.3 52.7-21.8 14.4-14.5 21.5-32.1 21.5-52.7s-7.1-38.1-21.5-52.7c-14.4-14.6-32-21.9-52.7-21.9V229c-51.3 0-98.7 12.6-142.2 37.8s-77.9 59.6-103.1 103.1S229 460.8 229 512s12.6 98.7 37.8 142.2c25.2 43.5 59.6 77.9 103.1 103.1C413.4 782.6 460.7 795 512 795V444.4zm158.8 92.8c-16.6-12.4-35-17-55.3-13.9-20.3 3.1-36.7 12.8-49 29.2-8 10.6-12.7 22.5-14.3 35.8-1.6 13.3.3 25.9 5.3 38.1 5.1 12.2 13.2 22.2 24.2 30.2 16.3 12.4 34.7 17.1 55 14.3 20.3-2.9 36.7-12.6 49-29.2 12.4-16.6 17.1-35 14.3-55.3-2.9-20.5-12.6-36.8-29.2-49.2zM512 295.2c-20.7 0-38.3 7.3-52.7 21.8-14.4 14.6-21.5 32.1-21.5 52.7s7.1 38.1 21.5 52.7c14.4 14.6 32 21.8 52.7 21.8v-149zm-54.4 257.3c-12.4-16.3-28.7-26.1-49-29.2s-38.8 1.5-55.3 13.9c-16.6 12.4-26.3 28.7-29.2 49-2.9 20.3 1.9 38.8 14.3 55.3 12.4 16.6 28.7 26.3 49 29.2 20.3 2.9 38.8-1.8 55.3-13.9 16.6-12.2 26.3-28.5 29.2-49 2.9-20.6-1.9-39-14.3-55.3z"/></svg>